HIERARCHY
ROOT Hips
{
 OFFSET 0.000000 0.000000 0.000000
 CHANNELS 6 Xposition Yposition Zposition Yrotation Xrotation Zrotation
 JOINT Chest
 {
  OFFSET 0.000000 9.585900 0.002600
  CHANNELS 3 Yrotation Xrotation Zrotation
  JOINT Chest2
  {
   OFFSET 0.000000 9.601200 -0.005300
   CHANNELS 3 Yrotation Xrotation Zrotation
   JOINT Chest3
   {
    OFFSET 0.000000 9.561800 0.000000
    CHANNELS 3 Yrotation Xrotation Zrotation
    JOINT Chest4
    {
     OFFSET 0.000000 9.552100 0.000000
     CHANNELS 3 Yrotation Xrotation Zrotation
     JOINT Neck
     {
      OFFSET 0.000000 14.453000 0.000000
      CHANNELS 3 Yrotation Xrotation Zrotation
      JOINT Head
      {
       OFFSET 0.000000 8.936500 -0.011300
       CHANNELS 3 Yrotation Xrotation Zrotation
       End Site
       {
        OFFSET 0.000000 17.073600 -0.006000
       }
      }
     }
     JOINT RightCollar
     {
      OFFSET -2.921100 9.558500 0.000000
      CHANNELS 3 Yrotation Xrotation Zrotation
      JOINT RightShoulder
      {
       OFFSET -13.519700 0.000000 0.000000
       CHANNELS 3 Yrotation Xrotation Zrotation
       JOINT RightElbow
       {
        OFFSET 0.000000 -29.696600 0.000000
        CHANNELS 3 Yrotation Xrotation Zrotation
        JOINT RightWrist
        {
         OFFSET 0.000000 -24.004700 0.000000
         CHANNELS 3 Yrotation Xrotation Zrotation
         End Site
         {
          OFFSET 0.000000 -17.728500 0.000000
         }
        }
       }
      }
     }
     JOINT LeftCollar
     {
      OFFSET 2.921100 9.558500 0.000000
      CHANNELS 3 Yrotation Xrotation Zrotation
      JOINT LeftShoulder
      {
       OFFSET 13.519700 0.000000 0.000000
       CHANNELS 3 Yrotation Xrotation Zrotation
       JOINT LeftElbow
       {
        OFFSET 0.000000 -29.696600 0.000000
        CHANNELS 3 Yrotation Xrotation Zrotation
        JOINT LeftWrist
        {
         OFFSET 0.000000 -24.004700 0.000000
         CHANNELS 3 Yrotation Xrotation Zrotation
         End Site
         {
          OFFSET 0.000000 -17.728500 0.000000
         }
        }
       }
      }
     }
    }
   }
  }
 }
 JOINT RightHip
 {
  OFFSET -7.771700 -0.012900 -0.001300
  CHANNELS 3 Yrotation Xrotation Zrotation
  JOINT RightKnee
  {
   OFFSET 0.000000 -40.869800 0.001200
   CHANNELS 3 Yrotation Xrotation Zrotation
   JOINT RightAnkle
   {
    OFFSET 0.000000 -39.717900 0.002100
    CHANNELS 3 Yrotation Xrotation Zrotation
    JOINT RightToe
    {
     OFFSET 0.000000 -4.965400 11.033500
     CHANNELS 3 Yrotation Xrotation Zrotation
     End Site
     {
      OFFSET 0.000000 -1.423100 5.872300
     }
    }
   }
  }
 }
 JOINT LeftHip
 {
  OFFSET 7.771700 -0.012900 -0.001300
  CHANNELS 3 Yrotation Xrotation Zrotation
  JOINT LeftKnee
  {
   OFFSET 0.000000 -40.869800 0.001200
   CHANNELS 3 Yrotation Xrotation Zrotation
   JOINT LeftAnkle
   {
    OFFSET 0.000000 -39.717900 0.002100
    CHANNELS 3 Yrotation Xrotation Zrotation
    JOINT LeftToe
    {
     OFFSET 0.000000 -4.965400 11.033500
     CHANNELS 3 Yrotation Xrotation Zrotation
     End Site
     {
      OFFSET 0.000000 -1.423100 5.872300
     }
    }
   }
  }
 }
}
MOTION
Frames: 9
Frame Time: 0.008333
-125.791949 57.550013 104.704203 177.627205 -33.872040 -1.500551 2.208213 21.730131 3.245721 0.172564 2.989214 0.372910 0.374470 4.829648 0.674850 1.681606 18.405368 2.742646 -1.008509 13.317891 -3.278299 -0.599231 -11.040064 -5.798882 3.516098 -4.372667 -0.128064 14.440240 -17.721910 -21.627990 132.885063 -84.382810 -86.445772 15.038206 -18.568526 -44.449224 -9.245670 -5.237669 -4.129301 -6.692441 -16.546377 4.445510 29.305982 -49.003949 -67.252900 6.145432 -11.963572 25.538027 6.460022 -41.898202 -6.414636 -10.141199 65.697302 -10.132288 10.543716 27.327559 7.534038 -0.217961 -17.964826 1.238937 -4.836917 -38.992073 -0.955914 24.992314 63.346886 24.139841 -15.790630 6.755719 -2.813965 0.054057 0.193283 0.025978
-125.795839 57.547951 104.706195 177.643930 -33.871274 -1.464801 2.207918 21.719760 3.237175 0.176273 2.986642 0.371275 0.347010 4.838589 0.656495 1.724322 18.396237 2.770184 -0.988265 13.327255 -3.310868 -0.548407 -11.020909 -5.868261 3.518104 -4.364942 -0.122561 14.445674 -17.727867 -21.631452 132.590265 -84.380410 -86.172647 15.022956 -18.598757 -44.426872 -9.243275 -5.214922 -4.128138 -6.602845 -16.534528 4.422122 29.287959 -49.012244 -67.290217 6.150188 -11.959013 25.543201 6.484212 -41.903401 -6.467601 -10.146183 65.710015 -10.152560 10.539108 27.323632 7.535873 -0.214274 -17.965689 1.245322 -4.807883 -38.993654 -1.008718 25.002904 63.332642 24.125467 -15.790022 6.777057 -2.784132 0.036014 0.186408 0.019139
-125.797761 57.547265 104.706488 177.654817 -33.882273 -1.434286 2.213887 21.723131 3.239518 0.178753 2.983959 0.369505 0.349470 4.838283 0.657926 1.719609 18.400475 2.770928 -0.991385 13.332681 -3.333183 -0.451054 -11.003882 -5.957987 3.506940 -4.360163 -0.124785 14.486700 -17.742207 -21.619672 132.814506 -84.404821 -86.382781 15.039667 -18.542946 -44.433850 -9.226233 -5.195405 -4.119830 -6.558203 -16.526697 4.393095 29.287267 -49.012623 -67.298008 6.154032 -11.952799 25.550320 6.507007 -41.899158 -6.508222 -10.124765 65.732839 -10.149057 10.526844 27.308413 7.541474 -0.228073 -17.962525 1.254360 -4.779757 -38.982669 -1.054114 25.016466 63.322705 24.129639 -15.802213 6.786969 -2.774119 0.030743 0.182185 0.017530
-125.796841 57.546705 104.707143 177.655275 -33.891252 -1.412640 2.229728 21.726573 3.257276 0.210167 2.978581 0.402858 0.345373 4.841279 0.653065 1.657969 18.407025 2.724988 -0.966260 13.335437 -3.345111 -0.347039 -10.984707 -6.050429 3.520814 -4.358922 -0.115106 14.491168 -17.744151 -21.627388 133.173466 -84.436020 -86.710269 15.041473 -18.530429 -44.424367 -9.128714 -5.155005 -4.075980 -6.585634 -16.540428 4.335392 29.279336 -49.019694 -67.319987 6.161785 -11.955255 25.598491 6.522304 -41.903266 -6.524304 -10.139096 65.750872 -10.177933 10.522366 27.313064 7.539799 -0.213574 -17.972316 1.257987 -4.730595 -38.962951 -1.077641 24.953990 63.317133 24.075317 -15.824268 6.776856 -2.781537 0.050620 0.194270 0.028968
-125.795982 57.546400 104.707800 177.655472 -33.900001 -1.388543 2.231160 21.733701 3.251884 0.210628 2.979292 0.403293 0.365911 4.842243 0.679923 1.659122 18.410574 2.720985 -0.883080 13.349861 -3.387803 -0.335307 -10.973551 -6.109990 3.528998 -4.361385 -0.109560 14.475549 -17.741907 -21.652492 133.396299 -84.466799 -86.909607 15.027800 -18.548631 -44.400081 -9.144890 -5.153869 -4.085009 -6.542221 -16.520473 4.320380 29.273869 -49.028457 -67.343848 6.167573 -11.957073 25.646182 6.540807 -41.897616 -6.552723 -10.139856 65.757430 -10.183203 10.522863 27.311596 7.540559 -0.212813 -17.972461 1.258627 -4.703757 -38.952453 -1.107268 24.946369 63.313038 24.065064 -15.819560 6.780333 -2.777516 0.049332 0.192391 0.028918
-125.799832 57.546589 104.707780 177.664369 -33.911870 -1.339266 2.228265 21.740911 3.247471 0.194916 2.983809 0.376887 0.378649 4.843124 0.699751 1.661539 18.412363 2.723388 -0.829431 13.363015 -3.425809 -0.274293 -10.956536 -6.190335 3.563187 -4.358649 -0.092124 14.531822 -17.745919 -21.667036 132.661145 -84.466487 -86.239976 15.004004 -18.581626 -44.372118 -9.151971 -5.150852 -4.096918 -6.501489 -16.497941 4.306403 29.279553 -49.030748 -67.346918 6.163619 -11.949496 25.620424 6.571622 -41.886995 -6.619563 -10.139624 65.768916 -10.194802 10.528126 27.303411 7.543595 -0.214076 -17.970071 1.260586 -4.660848 -38.939687 -1.175948 24.955422 63.299598 24.063239 -15.826160 6.795456 -2.771399 0.050972 0.184558 0.031035
-125.799525 57.547304 104.707712 177.669828 -33.926353 -1.310975 2.237879 21.748258 3.267682 0.189000 2.988673 0.369548 0.379365 4.844393 0.701227 1.665964 18.418925 2.729640 -0.794599 13.370877 -3.464601 -0.186256 -10.934820 -6.281194 3.549859 -4.361284 -0.108486 14.551244 -17.748955 -21.670365 132.891502 -84.504830 -86.442230 15.013093 -18.575854 -44.366464 -9.137395 -5.142854 -4.090823 -6.482579 -16.482336 4.272454 29.290951 -49.024054 -67.317792 6.156756 -11.943708 25.559287 6.578723 -41.876142 -6.647585 -10.146348 65.776991 -10.220768 10.545103 27.298710 7.559391 -0.220004 -17.971277 1.256377 -4.635774 -38.913798 -1.200760 24.928583 63.285427 24.025120 -15.848972 6.790984 -2.777095 0.058273 0.193803 0.038484
-125.798498 57.547720 104.708473 177.677750 -33.935871 -1.286078 2.230637 21.755279 3.257427 0.200338 2.986848 0.390168 0.378735 4.848614 0.700547 1.663724 18.421799 2.737840 -0.751696 13.383936 -3.507538 -0.093873 -10.910152 -6.374361 3.565171 -4.356355 -0.111916 14.529018 -17.747648 -21.701291 133.343091 -84.547031 -86.846622 15.023629 -18.572351 -44.359629 -9.087172 -5.108725 -4.045215 -6.486900 -16.490752 4.195610 29.291012 -49.039853 -67.346600 6.154356 -11.950745 25.653460 6.584620 -41.869308 -6.674460 -10.144084 65.784012 -10.233259 10.546222 27.296635 7.568965 -0.210905 -17.972503 1.248094 -4.621011 -38.897081 -1.221519 24.925197 63.272290 23.999166 -15.858433 6.793776 -2.768651 0.062018 0.196056 0.037414
-125.793712 57.548046 104.709898 177.678555 -33.942988 -1.276476 2.236489 21.759249 3.266340 0.211131 2.985950 0.407135 0.377809 4.852387 0.704867 1.666843 18.425992 2.742750 -0.709320 13.397035 -3.546047 0.004232 -10.881814 -6.470358 3.574316 -4.352348 -0.112883 14.535256 -17.751954 -21.720269 133.206353 -84.558046 -86.717977 15.004356 -18.608079 -44.333184 -9.080561 -5.093715 -4.033284 -6.469470 -16.478688 4.164134 29.280513 -49.039998 -67.274882 6.155668 -11.963934 25.623822 6.580714 -41.866701 -6.675267 -10.140413 65.788402 -10.241946 10.558099 27.296991 7.574967 -0.217703 -17.974952 1.248455 -4.617272 -38.883490 -1.217833 24.906812 63.268410 23.970784 -15.863771 6.786413 -2.772735 0.064824 0.202624 0.040196
